<svg width="38" height="38" viewBox="0 0 38 38" fill="none" xmlns="http://www.w3.org/2000/svg">
<path d="M37.5884 11.9845C37.5884 10.3666 37.2703 8.79866 36.6477 7.31707C36.0432 5.89001 35.1797 4.60839 34.0799 3.50856C32.98 2.40872 31.6984 1.54522 30.2714 0.940766C28.7943 0.313589 27.2218 0 25.6039 0C23.986 0 22.418 0.318134 20.9364 0.940766C19.5094 1.54522 18.2277 2.40872 17.1279 3.50856C16.0281 4.60839 15.1646 5.89001 14.5601 7.31707C13.9329 8.79412 13.6193 10.3666 13.6193 11.9845C13.6193 14.007 14.1284 15.9885 15.0964 17.7518L0.748575 32.086C0.416807 32.4178 0.312277 32.9223 0.516792 33.3995C0.557695 33.4995 0.625866 33.5904 0.703127 33.6676L3.91628 36.8807C3.99354 36.958 4.08443 37.0216 4.18442 37.0671C4.66162 37.2716 5.16609 37.1716 5.49785 36.8353L7.48391 34.8492L10.3426 37.7079C10.4198 37.7851 10.5107 37.8488 10.6107 37.8942C11.0879 38.0987 11.5924 37.9988 11.9241 37.6624L15.0918 34.4947C15.1691 34.4175 15.2327 34.3266 15.2781 34.2266C15.4827 33.7494 15.3827 33.2449 15.0464 32.9132L12.2331 30.1L19.832 22.4966C21.5908 23.4646 23.5769 23.9736 25.5993 23.9736C27.2172 23.9736 28.7852 23.6555 30.2667 23.0329C31.6938 22.4284 32.9754 21.5649 34.0753 20.4651C35.1751 19.3653 36.0386 18.0837 36.6431 16.6566C37.2703 15.1704 37.5884 13.6025 37.5884 11.9845ZM29.8033 16.1884C28.6807 17.311 27.1855 17.9291 25.5994 17.9291C24.0133 17.9291 22.518 17.311 21.3955 16.1884C20.2729 15.0659 19.6503 13.5707 19.6503 11.9845C19.6503 10.3939 20.2684 8.90319 21.3909 7.78064C22.5135 6.65808 24.0088 6.03999 25.5948 6.03999C27.181 6.03999 28.6762 6.65808 29.7988 7.78064C30.9213 8.90319 31.5394 10.3984 31.5394 11.9845C31.5484 13.5707 30.9304 15.0659 29.8033 16.1884Z" fill="#94A2B3"/>
</svg>
