<svg width="38" height="38" viewBox="0 0 38 38" fill="none" xmlns="http://www.w3.org/2000/svg">
<g clip-path="url(#clip0)">
<path d="M9.61639 37.9679L10.316 37.7724C10.9889 37.5843 11.3819 36.8863 11.1939 36.2134L3.19537 7.58967C3.0825 7.18572 2.81379 6.84316 2.44833 6.63734C2.08288 6.43152 1.65064 6.37931 1.24669 6.4922L1.15634 6.51742C0.31512 6.75246 -0.176295 7.62494 0.0587337 8.46616L8.05747 37.0899C8.24551 37.7628 8.94346 38.1559 9.61639 37.9679Z" fill="#94A2B3"/>
<path d="M37.7841 17.9649C35.2476 16.7002 32.901 15.0858 30.8131 13.1691C30.6375 13.0084 30.5689 12.7618 30.6362 12.5336C31.6707 8.61969 32.439 4.64024 32.9358 0.622531C33.0144 -0.0457445 32.6541 -0.242296 32.2741 0.216324C24.8182 9.13322 11.9179 -1.41506 4.23926 6.68943C4.33145 6.86203 4.40397 7.04444 4.45546 7.23322L9.64443 25.8139C17.3362 17.8077 30.1906 28.2905 37.6334 19.3932C38.0134 18.9346 38.0855 18.096 37.7841 17.9649Z" fill="#94A2B3"/>
</g>
<defs>
<clipPath id="clip0">
<rect width="38" height="38" fill="white"/>
</clipPath>
</defs>
</svg>
