<svg width="44" height="44" viewBox="0 0 44 44" fill="none" xmlns="http://www.w3.org/2000/svg">
<g clip-path="url(#clip0)">
<path d="M38.9583 5.5H5.04167C2.2605 5.5 0 7.7605 0 10.5417V33.4583C0 36.2395 2.2605 38.5 5.04167 38.5H38.9583C41.7395 38.5 44 36.2395 44 33.4583V10.5417C44 7.7605 41.7395 5.5 38.9583 5.5ZM13.75 12.8333C16.2763 12.8333 18.3333 14.8903 18.3333 17.4167C18.3333 19.943 16.2763 22 13.75 22C11.2237 22 9.16667 19.943 9.16667 17.4167C9.16667 14.8903 11.2237 12.8333 13.75 12.8333ZM22 29.7917C22 30.5507 21.384 31.1667 20.625 31.1667H6.875C6.116 31.1667 5.5 30.5507 5.5 29.7917V28.875C5.5 26.0938 7.7605 23.8333 10.5417 23.8333H16.9583C19.7395 23.8333 22 26.0938 22 28.875V29.7917ZM37.125 31.1667H27.0417C26.2827 31.1667 25.6667 30.5507 25.6667 29.7917C25.6667 29.0327 26.2827 28.4167 27.0417 28.4167H37.125C37.884 28.4167 38.5 29.0327 38.5 29.7917C38.5 30.5507 37.884 31.1667 37.125 31.1667ZM37.125 23.8333H27.0417C26.2827 23.8333 25.6667 23.2173 25.6667 22.4583C25.6667 21.6993 26.2827 21.0833 27.0417 21.0833H37.125C37.884 21.0833 38.5 21.6993 38.5 22.4583C38.5 23.2173 37.884 23.8333 37.125 23.8333ZM37.125 16.5H27.0417C26.2827 16.5 25.6667 15.884 25.6667 15.125C25.6667 14.366 26.2827 13.75 27.0417 13.75H37.125C37.884 13.75 38.5 14.366 38.5 15.125C38.5 15.884 37.884 16.5 37.125 16.5Z" fill="#94A2B3"/>
</g>
<defs>
<clipPath id="clip0">
<rect width="44" height="44" fill="white"/>
</clipPath>
</defs>
</svg>
