<svg width="48" height="48" viewBox="0 0 48 48" fill="none" xmlns="http://www.w3.org/2000/svg">
<path d="M24 23.5538C28.5364 23.5538 32.2143 19.0869 32.2143 13.5768C32.2143 8.06656 31.0066 3.59961 24 3.59961C16.9931 3.59961 15.7856 8.06656 15.7856 13.5768C15.7858 19.0869 19.4635 23.5538 24 23.5538Z" fill="#299EF3"/>
<path d="M39.497 38.3849C39.345 28.7859 38.0913 26.0508 28.4982 24.3193C28.4982 24.3193 27.1475 26.04 24.0001 26.04C20.8526 26.04 19.5022 24.3193 19.5022 24.3193C10.0137 26.0317 8.68355 28.7264 8.50872 38.0729C8.4945 38.8362 8.48795 38.8762 8.48535 38.7876C8.48585 38.9536 8.48659 39.2606 8.48659 39.7961C8.48659 39.7961 10.7706 44.4003 24.0002 44.4003C37.2298 44.4003 39.514 39.7961 39.514 39.7961C39.514 39.4521 39.5143 39.2128 39.5145 39.0502C39.5119 39.1049 39.5066 38.9987 39.497 38.3849Z" fill="#299EF3"/>
<path d="M35.3993 21.7724C39.0839 21.7724 42.0708 18.1445 42.0708 13.6692C42.0708 9.19386 41.0901 5.56592 35.3993 5.56592C34.4421 5.56592 33.6184 5.66891 32.9099 5.86117C34.2243 8.28424 34.4044 11.2273 34.4044 13.5766C34.4044 16.2366 33.6834 18.7761 32.3555 20.8789C33.2682 21.4488 34.3024 21.7724 35.3993 21.7724Z" fill="#299EF3"/>
<path d="M47.9853 33.8178C47.8616 26.0217 46.8436 23.8003 39.0521 22.394C39.0521 22.394 37.9553 23.7917 35.3989 23.7917C35.2932 23.7917 35.1907 23.7884 35.0898 23.7839C36.7141 24.5162 38.1917 25.5358 39.2798 27.0279C41.161 29.6074 41.5935 33.0725 41.6828 38.1631C46.9247 37.1272 47.999 34.9642 47.999 34.9642C47.999 34.6823 47.999 34.4889 47.9995 34.3567C47.9974 34.4032 47.9931 34.3199 47.9853 33.8178Z" fill="#299EF3"/>
<path d="M12.6004 21.7725C13.6974 21.7725 14.7314 21.449 15.6445 20.8791C14.3166 18.7764 13.5956 16.2368 13.5956 13.5769C13.5956 11.2275 13.7757 8.28437 15.0899 5.86141C14.3814 5.66915 13.5578 5.56616 12.6004 5.56616C6.90966 5.56616 5.9292 9.1941 5.9292 13.6695C5.9292 18.1446 8.91607 21.7725 12.6004 21.7725Z" fill="#299EF3"/>
<path d="M12.9094 23.7839C12.8088 23.7884 12.7063 23.7917 12.6003 23.7917C10.0439 23.7917 8.94714 22.394 8.94714 22.394C1.1559 23.8003 0.13761 26.0216 0.0142185 33.8178C0.00618195 34.32 0.00210186 34.4032 0 34.3566C0.000247278 34.4888 0.000494556 34.6822 0.000494556 34.9641C0.000494556 34.9641 1.07492 37.1271 6.31647 38.163C6.40611 33.0725 6.83835 29.6074 8.71976 27.0278C9.80779 25.536 11.2852 24.5162 12.9094 23.7839Z" fill="#299EF3"/>
</svg>
