<svg width="38" height="38" viewBox="0 0 38 38" fill="none" xmlns="http://www.w3.org/2000/svg">
<path d="M35.4898 12.0078C34.6767 11.1941 33.384 11.1429 32.5099 11.8552C32.3835 11.9582 32.4814 11.8674 30.5566 13.7922L35.5528 18.7883L37.3483 17.0152C38.2165 16.147 38.2165 14.7345 37.3483 13.8663L35.4898 12.0078Z" fill="#94A2B3"/>
<path d="M20.3119 24.132L17.373 30.4297C17.1751 30.854 17.2636 31.3567 17.5946 31.6877C17.9257 32.0188 18.4286 32.1073 18.8526 31.9093L25.1504 28.9704C25.3995 28.8541 24.6453 29.56 33.9692 20.3525L28.983 15.3662C19.7384 24.6108 20.4305 23.8779 20.3119 24.132Z" fill="#94A2B3"/>
<path d="M27.0258 30.3385C26.7531 30.6077 26.4389 30.8262 26.0918 30.9883L19.794 33.9272C18.5556 34.5052 17.0426 34.2851 16.0201 33.2624C15.0307 32.2731 14.7635 30.7564 15.3551 29.4883L18.2941 23.1904C18.4592 22.8367 18.6829 22.5175 18.9589 22.2414L28.4268 12.7735V3.33984C28.4268 1.49825 26.9285 0 25.0869 0H3.34082C1.49923 0 0.000976562 1.49825 0.000976562 3.33984V34.6602C0.000976562 36.5017 1.49923 38 3.34082 38H25.0869C26.9285 38 28.4268 36.5017 28.4268 34.6602V28.9549L27.0258 30.3385ZM5.93855 7.19922H22.5635C23.1784 7.19922 23.6768 7.69767 23.6768 8.3125C23.6768 8.92733 23.1784 9.42578 22.5635 9.42578H5.93855C5.32372 9.42578 4.82527 8.92733 4.82527 8.3125C4.82527 7.69767 5.32372 7.19922 5.93855 7.19922ZM5.93855 13.1367H19.001C19.6159 13.1367 20.1143 13.6352 20.1143 14.25C20.1143 14.8648 19.6159 15.3633 19.001 15.3633H5.93855C5.32372 15.3633 4.82527 14.8648 4.82527 14.25C4.82527 13.6352 5.32372 13.1367 5.93855 13.1367ZM4.82527 20.1875C4.82527 19.5727 5.32372 19.0742 5.93855 19.0742H15.4386C16.0534 19.0742 16.5518 19.5727 16.5518 20.1875C16.5518 20.8023 16.0534 21.3008 15.4386 21.3008H5.93855C5.32372 21.3008 4.82527 20.8023 4.82527 20.1875Z" fill="#94A2B3"/>
</svg>
